<svg width="171" height="110" viewBox="0 0 171 110" fill="none" xmlns="http://www.w3.org/2000/svg">
<circle cx="121.5" cy="26.5" r="18" stroke="url(#paint0_linear_6_31)" stroke-width="3"/>
<circle cx="98" cy="26" r="24.5" stroke="url(#paint1_linear_6_31)" stroke-width="3"/>
<circle cx="72.5" cy="26.5" r="13" stroke="url(#paint2_linear_6_31)" stroke-width="3"/>
<circle cx="42.5" cy="26.5" r="10" stroke="url(#paint3_linear_6_31)" stroke-width="3"/>
<path d="M14.098 73.5469H10.9872C10.9304 73.1444 10.8144 72.7869 10.6392 72.4744C10.464 72.1572 10.2391 71.8873 9.96449 71.6648C9.68987 71.4422 9.37263 71.2718 9.01278 71.1534C8.65767 71.035 8.27178 70.9759 7.85511 70.9759C7.10227 70.9759 6.4465 71.1629 5.88778 71.5369C5.32907 71.9062 4.89583 72.446 4.58807 73.1562C4.2803 73.8617 4.12642 74.7187 4.12642 75.7273C4.12642 76.7642 4.2803 77.6354 4.58807 78.3409C4.90057 79.0464 5.33617 79.5791 5.89489 79.9389C6.4536 80.2988 7.09991 80.4787 7.83381 80.4787C8.24574 80.4787 8.62689 80.4242 8.97727 80.3153C9.33239 80.2064 9.64725 80.0478 9.92188 79.8395C10.1965 79.6264 10.4238 79.3684 10.6037 79.0653C10.7884 78.7623 10.9162 78.4167 10.9872 78.0284L14.098 78.0426C14.0175 78.7102 13.8163 79.3542 13.4943 79.9744C13.1771 80.59 12.7486 81.1416 12.2088 81.6293C11.6738 82.1122 11.0346 82.4957 10.2912 82.7798C9.55256 83.0592 8.71686 83.1989 7.78409 83.1989C6.48674 83.1989 5.3267 82.9053 4.30398 82.3182C3.28598 81.7311 2.48106 80.8812 1.8892 79.7685C1.30208 78.6558 1.00852 77.3087 1.00852 75.7273C1.00852 74.1411 1.30682 72.7917 1.90341 71.679C2.5 70.5663 3.30966 69.7187 4.33239 69.1364C5.35511 68.5492 6.50568 68.2557 7.78409 68.2557C8.62689 68.2557 9.40814 68.3741 10.1278 68.6108C10.8523 68.8475 11.4938 69.1932 12.0526 69.6477C12.6113 70.0975 13.0658 70.6491 13.4162 71.3026C13.7713 71.956 13.9986 72.7041 14.098 73.5469ZM29.6697 75.7273C29.6697 77.3134 29.3691 78.6629 28.7678 79.7756C28.1712 80.8883 27.3568 81.7382 26.3246 82.3253C25.2971 82.9077 24.1418 83.1989 22.8587 83.1989C21.5661 83.1989 20.406 82.9053 19.3786 82.3182C18.3511 81.7311 17.5391 80.8812 16.9425 79.7685C16.3459 78.6558 16.0476 77.3087 16.0476 75.7273C16.0476 74.1411 16.3459 72.7917 16.9425 71.679C17.5391 70.5663 18.3511 69.7187 19.3786 69.1364C20.406 68.5492 21.5661 68.2557 22.8587 68.2557C24.1418 68.2557 25.2971 68.5492 26.3246 69.1364C27.3568 69.7187 28.1712 70.5663 28.7678 71.679C29.3691 72.7917 29.6697 74.1411 29.6697 75.7273ZM26.5518 75.7273C26.5518 74.6998 26.398 73.8333 26.0902 73.1278C25.7872 72.4223 25.3587 71.8873 24.8047 71.5227C24.2507 71.1581 23.602 70.9759 22.8587 70.9759C22.1153 70.9759 21.4666 71.1581 20.9126 71.5227C20.3587 71.8873 19.9278 72.4223 19.62 73.1278C19.317 73.8333 19.1655 74.6998 19.1655 75.7273C19.1655 76.7547 19.317 77.6212 19.62 78.3267C19.9278 79.0322 20.3587 79.5672 20.9126 79.9318C21.4666 80.2964 22.1153 80.4787 22.8587 80.4787C23.602 80.4787 24.2507 80.2964 24.8047 79.9318C25.3587 79.5672 25.7872 79.0322 26.0902 78.3267C26.398 77.6212 26.5518 76.7547 26.5518 75.7273ZM31.9478 68.4545H35.7404L39.7461 78.2273H39.9165L43.9222 68.4545H47.7148V83H44.7319V73.5327H44.6112L40.8469 82.929H38.8157L35.0515 73.4972H34.9308V83H31.9478V68.4545ZM50.2486 83V68.4545H55.9872C57.0904 68.4545 58.0303 68.6652 58.8068 69.0866C59.5833 69.5033 60.1752 70.0833 60.5824 70.8267C60.9943 71.5653 61.2003 72.4176 61.2003 73.3835C61.2003 74.3494 60.992 75.2017 60.5753 75.9403C60.1586 76.679 59.5549 77.2543 58.7642 77.6662C57.9782 78.0781 57.0265 78.2841 55.9091 78.2841H52.2514V75.8196H55.4119C56.0038 75.8196 56.4915 75.7178 56.875 75.5142C57.2633 75.3059 57.5521 75.0194 57.7415 74.6548C57.9356 74.2855 58.0327 73.8617 58.0327 73.3835C58.0327 72.9006 57.9356 72.4792 57.7415 72.1193C57.5521 71.7547 57.2633 71.473 56.875 71.2741C56.4867 71.0705 55.9943 70.9688 55.3977 70.9688H53.3239V83H50.2486ZM64.0252 83H60.7298L65.7511 68.4545H69.7141L74.7283 83H71.4329L67.7894 71.7784H67.6758L64.0252 83ZM63.8192 77.2827H71.6033V79.6832H63.8192V77.2827ZM88.6452 68.4545V83H85.989L79.6609 73.8452H79.5543V83H76.479V68.4545H79.1779L85.4563 77.6023H85.5842V68.4545H88.6452ZM90.3338 68.4545H93.7784L97.0952 74.7188H97.2372L100.554 68.4545H103.999L98.6932 77.858V83H95.6392V77.858L90.3338 68.4545ZM122.473 68.4545V83H119.817L113.489 73.8452H113.382V83H110.307V68.4545H113.006L119.284 77.6023H119.412V68.4545H122.473ZM127.521 83H124.226L129.247 68.4545H133.21L138.224 83H134.929L131.286 71.7784H131.172L127.521 83ZM127.315 77.2827H135.099V79.6832H127.315V77.2827ZM139.975 68.4545H143.768L147.773 78.2273H147.944L151.95 68.4545H155.742V83H152.759V73.5327H152.638L148.874 82.929H146.843L143.079 73.4972H142.958V83H139.975V68.4545ZM158.276 83V68.4545H168.077V70.9901H161.351V74.456H167.573V76.9915H161.351V80.4645H168.105V83H158.276Z" fill="#3B3B3B"/>
<path d="M33.6605 100.5H32.7926C32.728 100.177 32.611 99.8783 32.4418 99.6044C32.2756 99.3274 32.0663 99.0858 31.8139 98.8796C31.5616 98.6734 31.2753 98.5134 30.9553 98.3995C30.6352 98.2856 30.2889 98.2287 29.9165 98.2287C29.3195 98.2287 28.7747 98.3841 28.2823 98.695C27.793 99.0058 27.4006 99.4628 27.1051 100.066C26.8127 100.666 26.6665 101.402 26.6665 102.273C26.6665 103.15 26.8127 103.888 27.1051 104.489C27.4006 105.089 27.793 105.544 28.2823 105.855C28.7747 106.163 29.3195 106.317 29.9165 106.317C30.2889 106.317 30.6352 106.26 30.9553 106.146C31.2753 106.032 31.5616 105.874 31.8139 105.67C32.0663 105.464 32.2756 105.223 32.4418 104.946C32.611 104.669 32.728 104.369 32.7926 104.045H33.6605C33.5836 104.479 33.4389 104.884 33.2266 105.26C33.0173 105.632 32.7495 105.958 32.4233 106.238C32.1001 106.518 31.7277 106.737 31.3061 106.894C30.8845 107.051 30.4213 107.129 29.9165 107.129C29.1225 107.129 28.4177 106.931 27.8022 106.534C27.1867 106.134 26.7035 105.57 26.3526 104.844C26.0049 104.118 25.831 103.261 25.831 102.273C25.831 101.285 26.0049 100.428 26.3526 99.7013C26.7035 98.975 27.1867 98.4134 27.8022 98.0163C28.4177 97.6162 29.1225 97.4162 29.9165 97.4162C30.4213 97.4162 30.8845 97.4947 31.3061 97.6516C31.7277 97.8055 32.1001 98.024 32.4233 98.3072C32.7495 98.5872 33.0173 98.9135 33.2266 99.2859C33.4389 99.6583 33.5836 100.063 33.6605 100.5ZM43.4394 102.273C43.4394 103.258 43.2639 104.115 42.9131 104.844C42.5622 105.57 42.079 106.134 41.4635 106.534C40.8511 106.931 40.1463 107.129 39.3492 107.129C38.5521 107.129 37.8457 106.931 37.2302 106.534C36.6177 106.134 36.1361 105.57 35.7852 104.844C35.4375 104.115 35.2636 103.258 35.2636 102.273C35.2636 101.288 35.4375 100.432 35.7852 99.706C36.1361 98.9766 36.6193 98.4134 37.2348 98.0163C37.8503 97.6162 38.5551 97.4162 39.3492 97.4162C40.1463 97.4162 40.8511 97.6162 41.4635 98.0163C42.079 98.4134 42.5622 98.9766 42.9131 99.706C43.2639 100.432 43.4394 101.288 43.4394 102.273ZM42.5992 102.273C42.5992 101.426 42.4576 100.702 42.1744 100.098C41.8913 99.4921 41.5051 99.0289 41.0157 98.7088C40.5264 98.3887 39.9709 98.2287 39.3492 98.2287C38.7306 98.2287 38.1766 98.3887 37.6872 98.7088C37.1979 99.0289 36.8101 99.4905 36.5239 100.094C36.2407 100.697 36.0992 101.423 36.0992 102.273C36.0992 103.119 36.2407 103.844 36.5239 104.447C36.807 105.05 37.1933 105.513 37.6826 105.837C38.172 106.157 38.7275 106.317 39.3492 106.317C39.9709 106.317 40.5264 106.157 41.0157 105.837C41.5081 105.517 41.8959 105.055 42.1791 104.452C42.4622 103.845 42.6022 103.119 42.5992 102.273ZM45.5272 97.5455H46.5243L49.9544 105.781H50.0375L53.4675 97.5455H54.4647V107H53.6522V99.369H53.5783L50.3883 107H49.6035L46.4135 99.369H46.3397V107H45.5272V97.5455ZM56.9783 107V97.5455H60.0298C60.7008 97.5455 61.2609 97.6747 61.7102 97.9332C62.1626 98.1887 62.5027 98.5365 62.7305 98.9766C62.9613 99.4167 63.0767 99.9122 63.0767 100.463C63.0767 101.014 62.9628 101.511 62.7351 101.954C62.5073 102.394 62.1688 102.744 61.7195 103.002C61.2701 103.258 60.7115 103.385 60.0437 103.385H57.6431V102.61H60.0206C60.5161 102.61 60.927 102.517 61.2532 102.333C61.5794 102.145 61.8226 101.89 61.9826 101.566C62.1457 101.243 62.2273 100.875 62.2273 100.463C62.2273 100.051 62.1457 99.6829 61.9826 99.3597C61.8226 99.0366 61.5779 98.7827 61.2486 98.598C60.9223 98.4134 60.5084 98.321 60.0067 98.321H57.8416V107H56.9783ZM64.1523 107H63.2475L66.6868 97.5455H67.6101L71.0494 107H70.1445L67.1808 98.6673H67.1161L64.1523 107ZM64.8033 103.376H69.4936V104.152H64.8033V103.376ZM80.033 97.5455V107H79.1928L73.6069 99.0827H73.533V107H72.6697V97.5455H73.5053L79.1097 105.472H79.1836V97.5455H80.033ZM81.6603 97.5455H82.6575L85.4597 102.033H85.5428L88.345 97.5455H89.3422L85.9306 102.905V107H85.0719V102.905L81.6603 97.5455ZM99.7535 99.9091C99.7011 99.3828 99.4688 98.9643 99.0564 98.6534C98.644 98.3426 98.1254 98.1871 97.5006 98.1871C97.0605 98.1871 96.6727 98.2625 96.3373 98.4134C96.0049 98.5642 95.7433 98.7734 95.5525 99.0412C95.3647 99.3059 95.2709 99.6075 95.2709 99.946C95.2709 100.195 95.3247 100.414 95.4324 100.602C95.5402 100.789 95.6848 100.951 95.8664 101.086C96.051 101.219 96.2542 101.333 96.4758 101.428C96.7004 101.523 96.9266 101.603 97.1544 101.668L98.1515 101.954C98.4532 102.037 98.7548 102.143 99.0564 102.273C99.358 102.402 99.6334 102.565 99.8827 102.762C100.135 102.956 100.337 103.194 100.487 103.478C100.641 103.758 100.718 104.095 100.718 104.489C100.718 104.993 100.588 105.447 100.326 105.85C100.064 106.254 99.6888 106.574 99.1995 106.811C98.7101 107.045 98.1238 107.162 97.4406 107.162C96.7974 107.162 96.2388 107.055 95.7648 106.843C95.2909 106.628 94.9185 106.331 94.6476 105.952C94.3768 105.574 94.2245 105.135 94.1906 104.636H95.077C95.1077 105.009 95.2309 105.324 95.4463 105.583C95.6617 105.841 95.9418 106.038 96.2865 106.174C96.6312 106.306 97.0159 106.372 97.4406 106.372C97.9115 106.372 98.33 106.294 98.6963 106.137C99.0656 105.977 99.3549 105.755 99.5642 105.472C99.7765 105.186 99.8827 104.853 99.8827 104.475C99.8827 104.155 99.7996 103.887 99.6334 103.672C99.4672 103.453 99.2349 103.27 98.9363 103.122C98.6409 102.974 98.2977 102.844 97.9069 102.73L96.7758 102.397C96.0341 102.176 95.4586 101.87 95.0493 101.479C94.6399 101.088 94.4353 100.589 94.4353 99.983C94.4353 99.4751 94.5707 99.0289 94.8415 98.6442C95.1154 98.2564 95.4848 97.9548 95.9495 97.7393C96.4173 97.5208 96.942 97.4116 97.5237 97.4116C98.1115 97.4116 98.6317 97.5193 99.0841 97.7347C99.5365 97.9502 99.895 98.2472 100.16 98.6257C100.427 99.0012 100.571 99.429 100.589 99.9091H99.7535ZM102.796 107V97.5455H103.659V106.224H108.165V107H102.796ZM117.491 102.273C117.491 103.258 117.316 104.115 116.965 104.844C116.614 105.57 116.131 106.134 115.515 106.534C114.903 106.931 114.198 107.129 113.401 107.129C112.604 107.129 111.897 106.931 111.282 106.534C110.67 106.134 110.188 105.57 109.837 104.844C109.489 104.115 109.315 103.258 109.315 102.273C109.315 101.288 109.489 100.432 109.837 99.706C110.188 98.9766 110.671 98.4134 111.287 98.0163C111.902 97.6162 112.607 97.4162 113.401 97.4162C114.198 97.4162 114.903 97.6162 115.515 98.0163C116.131 98.4134 116.614 98.9766 116.965 99.706C117.316 100.432 117.491 101.288 117.491 102.273ZM116.651 102.273C116.651 101.426 116.509 100.702 116.226 100.098C115.943 99.4921 115.557 99.0289 115.067 98.7088C114.578 98.3887 114.023 98.2287 113.401 98.2287C112.782 98.2287 112.228 98.3887 111.739 98.7088C111.25 99.0289 110.862 99.4905 110.576 100.094C110.292 100.697 110.151 101.423 110.151 102.273C110.151 103.119 110.292 103.844 110.576 104.447C110.859 105.05 111.245 105.513 111.734 105.837C112.224 106.157 112.779 106.317 113.401 106.317C114.023 106.317 114.578 106.157 115.067 105.837C115.56 105.517 115.948 105.055 116.231 104.452C116.514 103.845 116.654 103.119 116.651 102.273ZM126.12 100.5C126.034 100.186 125.908 99.8922 125.742 99.6183C125.576 99.3413 125.37 99.0997 125.123 98.8935C124.88 98.6842 124.599 98.5211 124.278 98.4041C123.961 98.2872 123.608 98.2287 123.217 98.2287C122.601 98.2287 122.05 98.3887 121.564 98.7088C121.078 99.0289 120.693 99.4905 120.41 100.094C120.13 100.697 119.99 101.423 119.99 102.273C119.99 103.119 120.131 103.844 120.415 104.447C120.698 105.05 121.085 105.513 121.578 105.837C122.073 106.157 122.64 106.317 123.277 106.317C123.858 106.317 124.372 106.187 124.819 105.929C125.265 105.67 125.613 105.301 125.862 104.821C126.114 104.341 126.237 103.77 126.231 103.108L126.508 103.196H123.48V102.42H127.071V103.196C127.071 104.002 126.908 104.699 126.582 105.287C126.256 105.875 125.808 106.329 125.239 106.649C124.669 106.969 124.015 107.129 123.277 107.129C122.452 107.129 121.73 106.931 121.112 106.534C120.493 106.134 120.011 105.57 119.667 104.844C119.325 104.115 119.154 103.258 119.154 102.273C119.154 101.531 119.253 100.862 119.45 100.265C119.647 99.6675 119.925 99.1566 120.285 98.7319C120.648 98.3072 121.078 97.9825 121.573 97.7578C122.069 97.5301 122.617 97.4162 123.217 97.4162C123.734 97.4162 124.206 97.4978 124.634 97.6609C125.065 97.824 125.443 98.0487 125.77 98.3349C126.099 98.618 126.368 98.9458 126.578 99.3182C126.79 99.6875 126.933 100.081 127.007 100.5H126.12ZM128.937 107H128.032L131.471 97.5455H132.394L135.834 107H134.929L131.965 98.6673H131.9L128.937 107ZM129.587 103.376H134.278V104.152H129.587V103.376ZM144.817 97.5455V107H143.977L138.391 99.0827H138.317V107H137.454V97.5455H138.29L143.894 105.472H143.968V97.5455H144.817Z" fill="#3B3B3B"/>
<defs>
<linearGradient id="paint0_linear_6_31" x1="102" y1="26.5" x2="141" y2="26.5" gradientUnits="userSpaceOnUse">
<stop stop-color="#ECB93D"/>
<stop offset="1" stop-color="#E08336"/>
</linearGradient>
<linearGradient id="paint1_linear_6_31" x1="72" y1="26" x2="124" y2="26" gradientUnits="userSpaceOnUse">
<stop stop-color="#ECB93D"/>
<stop offset="1" stop-color="#E08336"/>
</linearGradient>
<linearGradient id="paint2_linear_6_31" x1="58" y1="26.5" x2="87" y2="26.5" gradientUnits="userSpaceOnUse">
<stop stop-color="#ECB93D"/>
<stop offset="1" stop-color="#E08336"/>
</linearGradient>
<linearGradient id="paint3_linear_6_31" x1="31" y1="26.5" x2="54" y2="26.5" gradientUnits="userSpaceOnUse">
<stop stop-color="#ECB93D"/>
<stop offset="1" stop-color="#E08336"/>
</linearGradient>
</defs>
</svg>
